# xmcd
#
# Track frame offsets: 
#        150
#        19749
#        39527
#        60434
#        77675
#        92832
#        111402
#        121205
#        136323
#        163807
#        179832
#        182553
#        200249
#        221481
#        239986
#        261712
#        278563
#
# Disc length: 3825 seconds
#
# Revision: 0
# Processed by: cddbd v1.5.2PL0 Copyright (c) Steve Scherf et al.
# Submitted via: ExactAudioCopy v0.95b2
#
DISCID=080eef11
DTITLE=The Saddle Tramps - Nashville Swinger
DYEAR=2004
DGENRE=Country
TTITLE0=Intro/The Bulge In Satan's Pants
TTITLE1=Mexican Hot Rod
TTITLE2=Mamma Was A Flagger
TTITLE3=How Can I Say I Love You (With A Shotgun In My Mouth)
TTITLE4=Banter
TTITLE5=Cal Transvestite
TTITLE6=Banter
TTITLE7=My Dick's Too Big
TTITLE8=Cotton Pony Express
TTITLE9=(You Put The) Cunt In Country
TTITLE10=Banter
TTITLE11=Shit Kicker
TTITLE12=White Trash Chicks On Speed
TTITLE13=Female Trouble
TTITLE14=Susanville
TTITLE15=After A Sixer
TTITLE16=Circus Fun
EXTD=
EXTT0=
EXTT1=
EXTT2=
EXTT3=
EXTT4=
EXTT5=
EXTT6=
EXTT7=
EXTT8=
EXTT9=
EXTT10=
EXTT11=
EXTT12=
EXTT13=
EXTT14=
EXTT15=
EXTT16=
PLAYORDER=
